<?xml version="1.0" encoding="utf-8"?>
<!-- Generator: Adobe Illustrator 23.0.3, SVG Export Plug-In . SVG Version: 6.00 Build 0)  -->
<svg version="1.1" id="레이어_1" xmlns="http://www.w3.org/2000/svg" xmlns:xlink="http://www.w3.org/1999/xlink" x="0px"
	 y="0px" viewBox="0 0 324.3 61.6" style="enable-background:new 0 0 324.3 61.6;" xml:space="preserve">
<style type="text/css">
	.st0{fill:url(#SVGID_1_);}
	.st1{fill:#FFFFFF;}
</style>
<title>sharecard_logo.svg</title>
<desc>Created with Sketch.</desc>
<g>
	<g>
		<linearGradient id="SVGID_1_" gradientUnits="userSpaceOnUse" x1="7.3495" y1="1.9136" x2="66.534" y2="41.2922">
			<stop  offset="0" style="stop-color:#197FE8"/>
			<stop  offset="0.3054" style="stop-color:#166DD2"/>
			<stop  offset="0.9368" style="stop-color:#0E3F9B"/>
			<stop  offset="1" style="stop-color:#0D3A95"/>
		</linearGradient>
		<path class="st0" d="M8.6,0h23.6c10.5,7,16.3,10.9,17.3,11.7C61.1,3.9,67.3,0,68.2,0H102v0.5C84.6,11.2,72.8,18.8,66.5,23.1
			c6.3,2.7,17.2,11.1,32.7,25.1c7.6,8.2,11.4,12.8,11.4,13.7h-0.3C85.5,47.2,67.1,37.5,55.1,33C42.8,38,24.5,47.6,0,61.9v-0.3
			C4.2,53.8,11.8,43.9,22.8,32c0.2,0,2.7-2.2,7.4-6.6l8.1-6.3L8.6,0.5V0z"/>
	</g>
	<g>
		<path class="st1" d="M104,1h49.5c3.2,0,5.7,1.7,7.7,5c0.2,1.2,0.3,2.1,0.3,2.8c0,2.5-1,5.3-2.9,8.3c-3.3,3.1-9.5,4.6-18.6,4.6
			h-22.5c-0.2,0-1.3,3.3-3.2,10c-0.6,1.9-1.1,3.1-1.4,3.3H98.4L98.1,35c3.3-10.1,6.2-19.6,8.7-28.4V5.5c0-1.3-0.9-2.7-2.7-4.3V1z
			 M120,14.4h24.8c0.8-2.6,1.2-4.1,1.2-4.4V9.4c0-0.9-0.4-1.3-1.2-1.3h-19.4c-2.4,0-3.8,1-4.4,3L120,14.4z"/>
		<path class="st1" d="M163.5,1h50.9v0.2c-4.6,4.6-8.9,6.9-12.9,6.9h-16.9c-2.4,0-3.8,1-4.4,3l-1,3.3h26.6v0.2
			c-5.1,4.8-9.3,7.2-12.6,7.2h-16.2c-0.9,2.2-1.4,3.6-1.4,4.3v0.2c0.1,1.1,0.8,1.7,1.9,1.7h17.7c5.1,0,9,2.3,11.7,6.9v0.4h-33.4
			c-7.7,0-12.3-1.7-14-5l-0.2-1.3c4-14.1,6.1-21.9,6.3-23.5c0-1.7-0.7-3-2.2-3.9V1z"/>
		<path class="st1" d="M212.5,1h50.9v0.2c-4.6,4.6-8.9,6.9-12.9,6.9h-16.9c-2.4,0-3.8,1-4.4,3l-1,3.3h26.6v0.2
			c-5.1,4.8-9.3,7.2-12.6,7.2H226c-0.9,2.2-1.4,3.6-1.4,4.3v0.2c0.1,1.1,0.8,1.7,1.9,1.7h17.7c5.1,0,9,2.3,11.7,6.9v0.4h-33.4
			c-7.7,0-12.3-1.7-14-5l-0.2-1.3c4-14.1,6.1-21.9,6.3-23.5c0-1.7-0.7-3-2.2-3.9V1z"/>
		<path class="st1" d="M264.7,1h54.6c3.3,0,4.9,1.5,4.9,4.6v0.2c0,1.2-2.3,9-6.8,23.3c-2.8,4-9.3,5.9-19.6,5.9h-42.2V35
			c4.2-2.8,6.3-5.7,6.3-8.5c1.7-5.2,3.7-12,6-20.4c0-1.7-1.1-3.2-3.2-4.6V1z M277.3,27.2h24.2c1.2,0,2.4-2.5,3.4-7.4
			c0.2-0.4,1.3-4,3.2-10.9h-24c-1.2,0-2.2,1.7-2.7,5C281.2,13.8,279.9,18.3,277.3,27.2z"/>
	</g>
</g>
</svg>
