<?xml version="1.0" encoding="utf-8"?>
<!-- Generator: Adobe Illustrator 23.0.3, SVG Export Plug-In . SVG Version: 6.00 Build 0)  -->
<svg version="1.1" id="Layer_1" xmlns="http://www.w3.org/2000/svg" xmlns:xlink="http://www.w3.org/1999/xlink" x="0px" y="0px"
	 viewBox="0 0 176 104" style="enable-background:new 0 0 176 104;" xml:space="preserve">
<style type="text/css">
	.st0{fill:#A3CDFF;}
</style>
<title>Artboard 1</title>
<path class="st0" d="M174,83.6v-6c0-2.2-1.8-4-4-4h-2v-2c0-1.7-1.3-3-3-3h-32c-2.8,0-5,2.2-5,5v26c0,2.2,1.8,4,4,4h38
	c2.2,0,4-1.8,4-4v-6c1.1,0,2-0.9,2-2v-6C176,84.4,175.1,83.6,174,83.6z M134.5,70.6H165c0.6,0,1,0.4,1,1v2h-31.5
	c-0.8,0-1.5-0.7-1.5-1.5S133.7,70.6,134.5,70.6z M172,99.6c0,1.1-0.9,2-2,2h-38c-1.1,0-2-0.9-2-2V73.1c0-0.9,0.4-1.7,1.2-2.1
	c-0.1,0.4-0.2,0.7-0.2,1.1c0,1.9,1.6,3.5,3.5,3.6H170c1.1,0,2,0.9,2,2v6h-8c-1.1,0-2,0.9-2,2v6c0,1.1,0.9,2,2,2h8V99.6z M174,91.6
	h-10v-6h10V91.6z"/>
<path class="st0" d="M134.6,81.4h5.7c2.5,1.7,3.9,2.6,4.1,2.8c2.8-1.9,4.3-2.8,4.5-2.8h8.1v0.1c-4.2,2.6-7,4.4-8.5,5.4
	c1.5,0.7,4.1,2.7,7.9,6c1.8,2,2.7,3.1,2.7,3.3H159c-6-3.5-10.4-5.8-13.3-6.9c-2.9,1.2-7.3,3.5-13.2,6.9v-0.1c1-1.9,2.8-4.3,5.5-7.1
	c0.1,0,0.6-0.5,1.8-1.6l1.9-1.5l-7.1-4.4L134.6,81.4L134.6,81.4z"/>
<path class="st0" d="M132.3,32.2c0.7,0.9,1.9,1,2.8,0.3c0,0,0,0,0,0l7.1-5.6l0,0c0.9-0.7,1-1.9,0.3-2.8c0,0,0,0,0,0l-5.6-7.1
	c-0.7-0.9-1.9-1-2.8-0.3l-7.1,5.6l0,0c-0.9,0.7-1,1.9-0.3,2.8c0,0,0,0,0,0L132.3,32.2L132.3,32.2z"/>
<path class="st0" d="M44.1,23.9l-8.1-4l0,0c-1-0.5-2.2-0.1-2.7,0.9l-4,8.1l0,0c-0.5,1-0.1,2.2,0.9,2.7c0,0,0,0,0,0l8.1,4l0,0
	c1,0.5,2.2,0.1,2.7-0.9c0,0,0,0,0,0l4-8.1C45.5,25.5,45.1,24.3,44.1,23.9C44.1,23.9,44.1,23.9,44.1,23.9z"/>
<path class="st0" d="M149.6,51.5h-4.1c-0.1,0-0.2,0-0.3,0.1l0,0c-0.2,0.2-0.2,0.5-0.1,0.7c0,0,0,0,0,0l5.3,6.2c0,0,0,0.1,0.1,0.1
	l0,0c0.2,0.2,0.5,0.1,0.7-0.1c0,0,0,0,0,0l5.3-6.2c0.1-0.1,0.1-0.2,0.1-0.4l0,0c0-0.3-0.3-0.5-0.5-0.5c0,0,0,0,0,0h-4.5
	c-0.7-6.3-2.8-12.3-6.3-17.5c-0.3-0.5-0.9-0.6-1.4-0.3c0,0,0,0,0,0c-0.5,0.3-0.6,0.9-0.3,1.4c0,0,0,0,0,0
	C146.9,40,149,45.7,149.6,51.5z"/>
<path class="st0" d="M27.9,39.9c-0.5-0.2-1.1,0-1.3,0.5C24.2,46.2,23,52.3,23,58.6c0,0.6,0.4,1,1,1s1-0.4,1-1c0-6,1.1-11.9,3.5-17.4
	C28.7,40.7,28.4,40.1,27.9,39.9z"/>
<path class="st0" d="M122.4,15.8L122.4,15.8c-6.8-2.9-13.9-5-21.1-6.1c-0.5-0.1-1.1,0.2-1.2,0.7c-0.1,0.2,0,0.4,0,0.6
	c0.1,0.3,0.4,0.6,0.8,0.6c7.1,1.1,14.1,3,20.7,5.9c0.1,0.1,0.3,0.1,0.4,0.1c0.6,0,1-0.5,1-1C122.9,16.3,122.7,16,122.4,15.8z"/>
<path class="st0" d="M70,9.7c-7.5,1.3-14.7,3.8-21.4,7.4c-0.4,0.2-0.6,0.7-0.5,1.1c0,0.1,0.1,0.2,0.1,0.3l0,0
	c0.3,0.5,0.9,0.7,1.4,0.4c0,0,0,0,0,0c6.5-3.5,13.5-6,20.8-7.2c0.6-0.1,0.9-0.6,0.8-1.2C71.1,10,70.6,9.6,70,9.7z"/>
<path class="st0" d="M86.9,1.5L86.9,1.5c-0.8-0.8-2-0.8-2.8,0c0,0,0,0,0,0l-6.4,6.4l0,0c-0.8,0.8-0.8,2,0,2.8c0,0,0,0,0,0l6.3,6.4
	l0,0c0.8,0.8,2,0.8,2.8,0c0,0,0,0,0,0l6.4-6.4l0,0c0.8-0.8,0.8-2,0-2.8c0,0,0,0,0,0L86.9,1.5z"/>
</svg>
