<?xml version="1.0" encoding="utf-8"?>
<!-- Generator: Adobe Illustrator 23.0.3, SVG Export Plug-In . SVG Version: 6.00 Build 0)  -->
<svg version="1.1" id="Layer_1" xmlns="http://www.w3.org/2000/svg" xmlns:xlink="http://www.w3.org/1999/xlink" x="0px" y="0px"
	 viewBox="0 0 177 88" style="enable-background:new 0 0 177 88;" xml:space="preserve">
<style type="text/css">
	.st0{fill:#4AFFAE;}
</style>
<title>asd</title>
<path class="st0" d="M174,67.6c1.1,0,2,0.9,2,2v6c0,1.1-0.9,2-2,2v6c0,2.2-1.8,4-4,4h-38c-2.2,0-4-1.8-4-4v-26c0-2.7,2.1-4.9,4.8-5
	l2,2h-0.3c-0.8,0-1.5,0.7-1.5,1.5s0.7,1.5,1.5,1.5H166v-2c0-0.5-0.3-0.9-0.7-1l1.4-1.4c0.8,0.6,1.3,1.5,1.3,2.4v2h2c2.2,0,4,1.8,4,4
	V67.6z M172,83.6v-6h-8c-1.1,0-2-0.9-2-2v-6c0-1.1,0.9-2,2-2h8v-6c0-1.1-0.9-2-2-2h-35.5c-1.9,0-3.5-1.6-3.5-3.6c0,0,0,0,0,0l0,0
	c0-0.4,0.1-0.7,0.2-1.1c-0.7,0.5-1.2,1.3-1.2,2.2v26.5c0,1.1,0.9,2,2,2h38C171.1,85.6,172,84.7,172,83.6z M174,75.6v-6h-10v6H174z
	 M165.9,51.8l-4.2,4.2h-2.9l1.1-1.1c0.8-0.8,1.2-1.9,1.1-3c-0.1-0.9-0.5-1.7-1.1-2.4l-6.5-6.5l1.9-1.9c0.9-0.9,2.4-0.9,3.3,0
	l7.4,7.3C166.8,49.4,166.8,50.8,165.9,51.8L165.9,51.8L165.9,51.8z M139.8,54.9L141,56h-2.6l-4.6-4.6c-0.9-0.9-0.9-2.4,0-3.3
	l7.3-7.3c0.9-0.9,2.3-0.9,3.2,0c0,0,0,0,0,0l0,0l2.1,2.1l-6.6,6.6c-0.6,0.6-1,1.5-1.1,2.4C138.6,53.1,139,54.2,139.8,54.9
	L139.8,54.9z M158.8,50.6c0.9,0.9,0.9,2.4,0,3.3l-2.2,2.2h-13.5l-2.2-2.2c-0.9-0.9-0.9-2.4,0-3.3l7.3-7.3c0.9-0.9,2.4-0.9,3.3,0
	L158.8,50.6L158.8,50.6z M136,65.7h5.7c2.5,1.7,3.9,2.6,4.1,2.8c2.8-1.9,4.3-2.8,4.5-2.8h8.1v0.1c-4.2,2.6-7,4.4-8.5,5.4
	c1.5,0.7,4.1,2.7,7.9,6c1.8,2,2.7,3.1,2.7,3.3h-0.1c-6-3.5-10.4-5.8-13.3-6.9c-2.9,1.2-7.3,3.5-13.2,6.9v-0.1c1-1.9,2.8-4.3,5.5-7.1
	c0.1,0,0.6-0.5,1.8-1.6l1.9-1.5l-7.1-4.4V65.7z"/>
</svg>
